<svg width="204" height="47" viewBox="0 0 204 47" fill="none" xmlns="http://www.w3.org/2000/svg">
<rect x="8.71484" y="0.428101" width="186.565" height="1.7568" fill="#D380FF"/>
<rect x="8.71484" y="44.3452" width="186.565" height="1.7568" fill="#D380FF"/>
<rect x="195.284" y="2.18701" width="3.4872" height="1.7568" fill="#D380FF"/>
<rect width="3.4872" height="1.7568" transform="matrix(-1 0 0 1 8.71484 2.18701)" fill="#D380FF"/>
<rect x="198.774" y="3.94312" width="1.7436" height="1.7568" fill="#D380FF"/>
<rect width="1.7436" height="1.7568" transform="matrix(-1 0 0 1 5.23291 3.94312)" fill="#D380FF"/>
<rect x="200.513" y="5.6958" width="1.7436" height="1.7568" fill="#D380FF"/>
<rect width="1.7436" height="1.7568" transform="matrix(-1 0 0 1 3.49316 5.6958)" fill="#D380FF"/>
<rect x="202.256" y="7.45508" width="1.7436" height="31.6224" fill="#D380FF"/>
<rect width="1.7436" height="31.6224" transform="matrix(-1 0 0 1 1.74365 7.45508)" fill="#D380FF"/>
<rect x="200.513" y="39.0774" width="1.7436" height="1.7568" fill="#D380FF"/>
<rect width="1.7436" height="1.7568" transform="matrix(-1 0 0 1 3.49316 39.0774)" fill="#D380FF"/>
<rect x="198.774" y="40.8364" width="1.7436" height="1.7568" fill="#D380FF"/>
<rect width="1.7436" height="1.7568" transform="matrix(-1 0 0 1 5.23291 40.8364)" fill="#D380FF"/>
<rect x="195.284" y="42.5894" width="3.4872" height="1.7568" fill="#D380FF"/>
<rect width="3.4872" height="1.7568" transform="matrix(-1 0 0 1 8.71484 42.5894)" fill="#D380FF"/>
<rect x="8.71484" y="2.18701" width="186.565" height="42.1632" fill="#951BD6"/>
<rect x="195.284" y="3.94312" width="3.4872" height="38.6496" fill="#951BD6"/>
<rect x="198.774" y="5.6958" width="1.7436" height="35.136" fill="#951BD6"/>
<rect x="200.513" y="7.45508" width="1.7436" height="31.6224" fill="#951BD6"/>
<rect x="1.74365" y="7.45508" width="1.7436" height="31.6224" fill="#951BD6"/>
<rect x="3.49316" y="5.6958" width="1.7436" height="35.136" fill="#951BD6"/>
<rect x="5.23291" y="3.94312" width="3.4872" height="38.6496" fill="#951BD6"/>
<rect x="12.9639" y="4.32422" width="177.751" height="1.44678" fill="#420463"/>
<rect x="12.9639" y="40.4934" width="177.751" height="1.44678" fill="#420463"/>
<rect x="190.709" y="5.77295" width="3.32245" height="1.44678" fill="#420463"/>
<rect width="3.32245" height="1.44678" transform="matrix(-1 0 0 1 12.9639 5.77295)" fill="#420463"/>
<rect x="194.035" y="7.21533" width="1.66122" height="1.44678" fill="#420463"/>
<rect width="1.66122" height="1.44678" transform="matrix(-1 0 0 1 9.63818 7.21533)" fill="#420463"/>
<rect x="195.694" y="8.66382" width="1.66122" height="1.44678" fill="#420463"/>
<rect width="1.66122" height="1.44678" transform="matrix(-1 0 0 1 7.98242 8.66382)" fill="#420463"/>
<rect x="197.357" y="10.1125" width="1.66122" height="26.042" fill="#420463"/>
<rect width="1.66122" height="26.042" transform="matrix(-1 0 0 1 6.31934 10.1125)" fill="#420463"/>
<rect x="195.694" y="36.1506" width="1.66122" height="1.44678" fill="#420463"/>
<rect width="1.66122" height="1.44678" transform="matrix(-1 0 0 1 7.98242 36.1506)" fill="#420463"/>
<rect x="194.035" y="37.5991" width="1.66122" height="1.44678" fill="#420463"/>
<rect width="1.66122" height="1.44678" transform="matrix(-1 0 0 1 9.63818 37.5991)" fill="#420463"/>
<rect x="190.709" y="39.0479" width="3.32245" height="1.44678" fill="#420463"/>
<rect width="3.32245" height="1.44678" transform="matrix(-1 0 0 1 12.9639 39.0479)" fill="#420463"/>
<rect x="12.9639" y="5.77295" width="177.751" height="34.7226" fill="#28033D"/>
<rect x="190.709" y="7.21533" width="3.32245" height="31.8291" fill="#28033D"/>
<rect x="194.035" y="8.66382" width="1.66122" height="28.9355" fill="#28033D"/>
<rect x="195.694" y="10.1125" width="1.66122" height="26.042" fill="#28033D"/>
<rect x="6.31934" y="10.1125" width="1.66122" height="26.042" fill="#28033D"/>
<rect x="7.98242" y="8.66382" width="1.66122" height="28.9355" fill="#28033D"/>
<rect x="9.63818" y="7.21533" width="3.32245" height="31.8291" fill="#28033D"/>
</svg>
