<svg width="49" height="46" viewBox="0 0 49 46" fill="none" xmlns="http://www.w3.org/2000/svg">
<rect x="7.50098" width="34" height="2" fill="#D380FF"/>
<rect x="7.50098" y="44" width="34" height="2" fill="#D380FF"/>
<rect width="2.91652" height="1.7568" transform="matrix(-1 0 0 1 7.79004 1.75903)" fill="#D380FF"/>
<rect width="1.45826" height="1.7568" transform="matrix(-1 0 0 1 4.87793 3.51489)" fill="#D380FF"/>
<rect width="1.45826" height="1.7568" transform="matrix(-1 0 0 1 3.42285 5.26782)" fill="#D380FF"/>
<rect width="1.45826" height="31.6224" transform="matrix(-1 0 0 1 1.95947 7.02686)" fill="#D380FF"/>
<rect width="1.45826" height="1.7568" transform="matrix(-1 0 0 1 3.42285 38.6494)" fill="#D380FF"/>
<rect width="1.45826" height="1.7568" transform="matrix(-1 0 0 1 4.87793 40.4084)" fill="#D380FF"/>
<rect x="41.501" y="1.75903" width="2.91652" height="1.7568" fill="#D380FF"/>
<rect x="43.7456" y="3.51489" width="1.45826" height="1.7568" fill="#D380FF"/>
<rect x="45.2002" y="5.26782" width="1.45826" height="1.7568" fill="#D380FF"/>
<rect x="46.6582" y="7.02686" width="1.45826" height="31.6224" fill="#D380FF"/>
<rect x="45.2002" y="38.6494" width="1.45826" height="1.7568" fill="#D380FF"/>
<rect x="43.7456" y="40.4084" width="1.45826" height="1.7568" fill="#D380FF"/>
<rect x="41.501" y="42.1614" width="2.91652" height="1.7568" fill="#D380FF"/>
<rect width="2.91652" height="1.7568" transform="matrix(-1 0 0 1 7.79004 42.1614)" fill="#D380FF"/>
<rect x="7.50098" y="2" width="34" height="42" fill="#951BD6"/>
<rect x="40.8271" y="3.51489" width="2.91652" height="38.6496" fill="#951BD6"/>
<rect x="43.7456" y="5.26782" width="1.45826" height="35.136" fill="#951BD6"/>
<rect x="45.2002" y="7.02686" width="1.45826" height="31.6224" fill="#951BD6"/>
<rect x="1.95947" y="7.02686" width="1.45826" height="31.6224" fill="#951BD6"/>
<rect x="3.42285" y="5.26782" width="1.45826" height="35.136" fill="#951BD6"/>
<rect x="4.87793" y="3.51489" width="2.91652" height="38.6496" fill="#951BD6"/>
<rect x="11.501" y="4" width="27" height="1" fill="#420463"/>
<rect x="11.501" y="40" width="27" height="2" fill="#420463"/>
<rect width="3" height="2" transform="matrix(-1 0 0 1 11.501 5)" fill="#420463"/>
<rect width="1" height="1" transform="matrix(-1 0 0 1 8.50098 7)" fill="#420463"/>
<rect width="2" height="2" transform="matrix(-1 0 0 1 7.50098 8)" fill="#420463"/>
<rect width="1" height="26" transform="matrix(-1 0 0 1 5.50098 10)" fill="#420463"/>
<rect width="2" height="1" transform="matrix(-1 0 0 1 7.50098 36)" fill="#420463"/>
<rect width="1" height="2" transform="matrix(-1 0 0 1 8.50098 37)" fill="#420463"/>
<rect x="36.8457" y="5.34473" width="2.77382" height="1.44678" fill="#420463"/>
<rect x="39.6226" y="6.78735" width="1.38691" height="1.44678" fill="#420463"/>
<rect x="41.0078" y="8.23584" width="1.38691" height="1.44678" fill="#420463"/>
<rect x="42.396" y="9.68457" width="1.38691" height="26.042" fill="#420463"/>
<rect x="41.0078" y="35.7227" width="1.38691" height="1.44678" fill="#420463"/>
<rect x="39.6226" y="37.1711" width="1.38691" height="1.44678" fill="#420463"/>
<rect x="36.8457" y="38.6199" width="2.77382" height="1.44678" fill="#420463"/>
<rect width="3" height="1" transform="matrix(-1 0 0 1 11.501 39)" fill="#420463"/>
<rect x="11.501" y="5" width="26" height="35" fill="#28033D"/>
<rect x="36.8457" y="6.78735" width="2.77382" height="31.8291" fill="#28033D"/>
<rect x="39.6226" y="8.23584" width="1.38691" height="28.9355" fill="#28033D"/>
<rect x="41.0078" y="9.68457" width="1.38691" height="26.042" fill="#28033D"/>
<rect x="5.50098" y="10" width="2" height="26" fill="#28033D"/>
<rect x="7.50098" y="8" width="1" height="29" fill="#28033D"/>
<rect x="8.50098" y="7" width="4" height="32" fill="#28033D"/>
</svg>
