<svg width="205" height="46" viewBox="0 0 205 46" fill="none" xmlns="http://www.w3.org/2000/svg">
<rect x="8.83105" y="0.325928" width="186.565" height="1.7568" fill="#D380FF"/>
<rect x="8.83105" y="44.2432" width="186.565" height="1.7568" fill="#D380FF"/>
<rect x="195.4" y="2.0849" width="3.4872" height="1.7568" fill="#D380FF"/>
<rect width="3.4872" height="1.7568" transform="matrix(-1 0 0 1 8.83105 2.0849)" fill="#D380FF"/>
<rect x="198.89" y="3.84088" width="1.7436" height="1.7568" fill="#D380FF"/>
<rect width="1.7436" height="1.7568" transform="matrix(-1 0 0 1 5.34912 3.84088)" fill="#D380FF"/>
<rect x="200.629" y="5.59375" width="1.7436" height="1.7568" fill="#D380FF"/>
<rect width="1.7436" height="1.7568" transform="matrix(-1 0 0 1 3.60938 5.59375)" fill="#D380FF"/>
<rect x="202.373" y="7.35278" width="1.7436" height="31.6224" fill="#D380FF"/>
<rect width="1.7436" height="31.6224" transform="matrix(-1 0 0 1 1.85986 7.35278)" fill="#D380FF"/>
<rect x="200.629" y="38.9753" width="1.7436" height="1.7568" fill="#D380FF"/>
<rect width="1.7436" height="1.7568" transform="matrix(-1 0 0 1 3.60938 38.9753)" fill="#D380FF"/>
<rect x="198.89" y="40.7343" width="1.7436" height="1.7568" fill="#D380FF"/>
<rect width="1.7436" height="1.7568" transform="matrix(-1 0 0 1 5.34912 40.7343)" fill="#D380FF"/>
<rect x="195.4" y="42.4872" width="3.4872" height="1.7568" fill="#D380FF"/>
<rect width="3.4872" height="1.7568" transform="matrix(-1 0 0 1 8.83105 42.4872)" fill="#D380FF"/>
<rect x="8.83105" y="2.0849" width="186.565" height="42.1632" fill="#951BD6"/>
<rect x="195.4" y="3.84088" width="3.4872" height="38.6496" fill="#951BD6"/>
<rect x="198.89" y="5.59375" width="1.7436" height="35.136" fill="#951BD6"/>
<rect x="200.629" y="7.35278" width="1.7436" height="31.6224" fill="#951BD6"/>
<rect x="1.85986" y="7.35278" width="1.7436" height="31.6224" fill="#951BD6"/>
<rect x="3.60938" y="5.59375" width="1.7436" height="35.136" fill="#951BD6"/>
<rect x="5.34912" y="3.84088" width="3.4872" height="38.6496" fill="#951BD6"/>
<rect x="13.0801" y="4.22217" width="177.751" height="1.44678" fill="#420463"/>
<rect x="13.0801" y="40.3914" width="177.751" height="1.44678" fill="#420463"/>
<rect x="190.825" y="5.67078" width="3.32245" height="1.44678" fill="#420463"/>
<rect width="3.32245" height="1.44678" transform="matrix(-1 0 0 1 13.0801 5.67078)" fill="#420463"/>
<rect x="194.151" y="7.11328" width="1.66122" height="1.44678" fill="#420463"/>
<rect width="1.66122" height="1.44678" transform="matrix(-1 0 0 1 9.75439 7.11328)" fill="#420463"/>
<rect x="195.811" y="8.56183" width="1.66122" height="1.44678" fill="#420463"/>
<rect width="1.66122" height="1.44678" transform="matrix(-1 0 0 1 8.09863 8.56183)" fill="#420463"/>
<rect x="197.473" y="10.0105" width="1.66122" height="26.042" fill="#420463"/>
<rect width="1.66122" height="26.042" transform="matrix(-1 0 0 1 6.43555 10.0105)" fill="#420463"/>
<rect x="195.811" y="36.0486" width="1.66122" height="1.44678" fill="#420463"/>
<rect width="1.66122" height="1.44678" transform="matrix(-1 0 0 1 8.09863 36.0486)" fill="#420463"/>
<rect x="194.151" y="37.4972" width="1.66122" height="1.44678" fill="#420463"/>
<rect width="1.66122" height="1.44678" transform="matrix(-1 0 0 1 9.75439 37.4972)" fill="#420463"/>
<rect x="190.825" y="38.9458" width="3.32245" height="1.44678" fill="#420463"/>
<rect width="3.32245" height="1.44678" transform="matrix(-1 0 0 1 13.0801 38.9458)" fill="#420463"/>
<rect x="13.0801" y="5.67078" width="177.751" height="34.7226" fill="#28033D"/>
<rect x="190.825" y="7.11328" width="3.32245" height="31.8291" fill="#28033D"/>
<rect x="194.151" y="8.56183" width="1.66122" height="28.9355" fill="#28033D"/>
<rect x="195.811" y="10.0105" width="1.66122" height="26.042" fill="#28033D"/>
<rect x="6.43555" y="10.0105" width="1.66122" height="26.042" fill="#28033D"/>
<rect x="8.09863" y="8.56183" width="1.66122" height="28.9355" fill="#28033D"/>
<rect x="9.75439" y="7.11328" width="3.32245" height="31.8291" fill="#28033D"/>
</svg>
