<svg width="45" height="45" viewBox="0 0 45 45" fill="none" xmlns="http://www.w3.org/2000/svg">
<path d="M22.5005 42.6567C11.3817 42.6567 2.34424 33.6192 2.34424 22.5005C2.34424 11.3817 11.3817 2.34424 22.5005 2.34424C33.6192 2.34424 42.6567 11.3817 42.6567 22.5005C42.6567 33.6192 33.6192 42.6567 22.5005 42.6567ZM22.5005 5.15674C12.938 5.15674 5.15674 12.938 5.15674 22.5005C5.15674 32.063 12.938 39.8442 22.5005 39.8442C32.063 39.8442 39.8442 32.063 39.8442 22.5005C39.8442 12.938 32.063 5.15674 22.5005 5.15674Z" fill="white"/>
<path d="M16.8757 40.7812H15.0007C14.2319 40.7812 13.5944 40.1437 13.5944 39.375C13.5944 38.6063 14.1944 37.9875 14.9632 37.9688C12.0194 27.9187 12.0194 17.0813 14.9632 7.03125C14.1944 7.0125 13.5944 6.39375 13.5944 5.625C13.5944 4.85625 14.2319 4.21875 15.0007 4.21875H16.8757C17.3257 4.21875 17.7569 4.44375 18.0194 4.8C18.2819 5.175 18.3569 5.64375 18.2069 6.075C14.6819 16.6687 14.6819 28.3313 18.2069 38.9438C18.3569 39.375 18.2819 39.8438 18.0194 40.2188C17.7569 40.5563 17.3257 40.7812 16.8757 40.7812Z" fill="white"/>
<path d="M28.1255 40.7813C27.9755 40.7813 27.8255 40.7625 27.6755 40.7063C26.9443 40.4625 26.5318 39.6563 26.7943 38.925C30.3193 28.3313 30.3193 16.6688 26.7943 6.05628C26.5505 5.32503 26.9443 4.51878 27.6755 4.27503C28.4255 4.03128 29.213 4.42503 29.4568 5.15628C33.188 16.3313 33.188 28.6313 29.4568 39.7875C29.2693 40.4063 28.7068 40.7813 28.1255 40.7813Z" fill="white"/>
<path d="M22.5 32.2507C17.2688 32.2507 12.0563 31.5195 7.03125 30.0382C7.0125 30.7882 6.39375 31.407 5.625 31.407C4.85625 31.407 4.21875 30.7695 4.21875 30.0007V28.1257C4.21875 27.6757 4.44375 27.2445 4.8 26.982C5.175 26.7195 5.64375 26.6445 6.075 26.7945C16.6688 30.3195 28.35 30.3195 38.9438 26.7945C39.375 26.6445 39.8438 26.7195 40.2188 26.982C40.5938 27.2445 40.8 27.6757 40.8 28.1257V30.0007C40.8 30.7695 40.1625 31.407 39.3938 31.407C38.625 31.407 38.0063 30.807 37.9875 30.0382C32.9438 31.5195 27.7313 32.2507 22.5 32.2507Z" fill="white"/>
<path d="M39.3746 18.2808C39.2246 18.2808 39.0746 18.2621 38.9246 18.2058C28.3308 14.6808 16.6496 14.6808 6.05584 18.2058C5.30584 18.4496 4.51834 18.0558 4.27459 17.3246C4.04959 16.5746 4.44334 15.7871 5.17459 15.5433C16.3496 11.8121 28.6496 11.8121 39.8058 15.5433C40.5371 15.7871 40.9496 16.5933 40.6871 17.3246C40.5183 17.9058 39.9558 18.2808 39.3746 18.2808Z" fill="white"/>
</svg>
