<svg width="123" height="46" viewBox="0 0 123 46" fill="none" xmlns="http://www.w3.org/2000/svg">
<rect x="7.61523" width="108" height="2" fill="#D380FF"/>
<rect x="7.61523" y="44" width="108" height="2" fill="#D380FF"/>
<rect width="2.91652" height="1.7568" transform="matrix(-1 0 0 1 7.9043 1.75903)" fill="#D380FF"/>
<rect width="1.45826" height="1.7568" transform="matrix(-1 0 0 1 4.99219 3.51489)" fill="#D380FF"/>
<rect width="1.45826" height="1.7568" transform="matrix(-1 0 0 1 3.53711 5.26782)" fill="#D380FF"/>
<rect width="1.45826" height="31.6224" transform="matrix(-1 0 0 1 2.07373 7.02686)" fill="#D380FF"/>
<rect width="1.45826" height="1.7568" transform="matrix(-1 0 0 1 3.53711 38.6494)" fill="#D380FF"/>
<rect width="1.45826" height="1.7568" transform="matrix(-1 0 0 1 4.99219 40.4084)" fill="#D380FF"/>
<rect width="2.91652" height="1.7568" transform="matrix(-1 0 0 1 7.9043 42.1614)" fill="#D380FF"/>
<rect x="7.61523" y="2" width="108" height="42" fill="#951BD6"/>
<rect x="2.07373" y="7.02686" width="1.45826" height="31.6224" fill="#951BD6"/>
<rect x="3.53711" y="5.26782" width="1.45826" height="35.136" fill="#951BD6"/>
<rect x="4.99219" y="3.51489" width="2.91652" height="38.6496" fill="#951BD6"/>
<rect x="12.6152" y="4" width="99" height="1" fill="#420463"/>
<rect x="12.6152" y="40" width="99" height="2" fill="#420463"/>
<rect width="4" height="2" transform="matrix(-1 0 0 1 13 5)" fill="#420463"/>
<rect width="1" height="1" transform="matrix(-1 0 0 1 8.61523 7)" fill="#420463"/>
<rect width="2" height="2" transform="matrix(-1 0 0 1 7.61523 8)" fill="#420463"/>
<rect width="1" height="26" transform="matrix(-1 0 0 1 5.61523 10)" fill="#420463"/>
<rect width="2" height="1" transform="matrix(-1 0 0 1 7.61523 36)" fill="#420463"/>
<rect width="1" height="2" transform="matrix(-1 0 0 1 8.61523 37)" fill="#420463"/>
<rect width="4" height="1" transform="matrix(-1 0 0 1 13 39)" fill="#420463"/>
<rect x="12.6152" y="5" width="99" height="35" fill="#28033D"/>
<rect x="115.597" y="1.75903" width="2.91652" height="1.7568" fill="#D380FF"/>
<rect x="118.515" y="3.51489" width="1.45826" height="1.7568" fill="#D380FF"/>
<rect x="119.97" y="5.26782" width="1.45826" height="1.7568" fill="#D380FF"/>
<rect x="121.428" y="7.02686" width="1.45826" height="31.6224" fill="#D380FF"/>
<rect x="119.97" y="38.6494" width="1.45826" height="1.7568" fill="#D380FF"/>
<rect x="118.515" y="40.4084" width="1.45826" height="1.7568" fill="#D380FF"/>
<rect x="115.597" y="42.1614" width="2.91652" height="1.7568" fill="#D380FF"/>
<rect x="115.597" y="3.51489" width="2.91652" height="38.6496" fill="#951BD6"/>
<rect x="118.515" y="5.26782" width="1.45826" height="35.136" fill="#951BD6"/>
<rect x="119.97" y="7.02686" width="1.45826" height="31.6224" fill="#951BD6"/>
<rect x="111.615" y="5.34473" width="2.77382" height="1.44678" fill="#420463"/>
<rect x="114.392" y="6.78735" width="1.38691" height="1.44678" fill="#420463"/>
<rect x="115.777" y="8.23584" width="1.38691" height="1.44678" fill="#420463"/>
<rect x="117.166" y="9.68457" width="1.38691" height="26.042" fill="#420463"/>
<rect x="115.777" y="35.7227" width="1.38691" height="1.44678" fill="#420463"/>
<rect x="114.392" y="37.1711" width="1.38691" height="1.44678" fill="#420463"/>
<rect x="111.615" y="38.6199" width="2.77382" height="1.44678" fill="#420463"/>
<rect x="111.615" y="6.78735" width="2.77382" height="31.8291" fill="#28033D"/>
<rect x="114.392" y="8.23584" width="1.38691" height="28.9355" fill="#28033D"/>
<rect x="115.777" y="9.68457" width="1.38691" height="26.042" fill="#28033D"/>
<rect x="5.61523" y="10" width="2" height="26" fill="#28033D"/>
<rect x="7.61523" y="8" width="1" height="29" fill="#28033D"/>
<rect x="8.61523" y="7" width="4" height="32" fill="#28033D"/>
</svg>
