<svg width="93" height="88" viewBox="0 0 93 88" fill="none" xmlns="http://www.w3.org/2000/svg">
<path d="M85.25 44C85.25 64.2505 67.901 80.6667 46.5 80.6667C25.099 80.6667 7.75 64.2505 7.75 44C7.75 23.7496 25.099 7.33334 46.5 7.33334C67.901 7.33334 85.25 23.7496 85.25 44Z" fill="#42EBEB"/>
<path fill-rule="evenodd" clip-rule="evenodd" d="M87.1875 44C87.1875 65.263 68.9711 82.5 46.5 82.5C24.0289 82.5 5.8125 65.263 5.8125 44C5.8125 22.737 24.0289 5.5 46.5 5.5C68.9711 5.5 87.1875 22.737 87.1875 44ZM46.5 80.6667C67.901 80.6667 85.25 64.2504 85.25 44C85.25 23.7496 67.901 7.33333 46.5 7.33333C25.099 7.33333 7.75 23.7496 7.75 44C7.75 64.2504 25.099 80.6667 46.5 80.6667Z" fill="#002D40"/>
<path d="M45.5312 34.8333C45.5312 35.8459 44.6638 36.6667 43.5938 36.6667C42.5237 36.6667 41.6562 35.8459 41.6562 34.8333C41.6562 33.8208 42.5237 33 43.5938 33C44.6638 33 45.5312 33.8208 45.5312 34.8333Z" fill="#ABFFFA"/>
<path d="M56.1875 42.1667C56.1875 43.1792 55.3201 44 54.25 44C53.1799 44 52.3125 43.1792 52.3125 42.1667C52.3125 41.1542 53.1799 40.3333 54.25 40.3333C55.3201 40.3333 56.1875 41.1542 56.1875 42.1667Z" fill="#FCFFFF"/>
<path d="M36.8125 40.3333C36.8125 41.3459 35.9451 42.1667 34.875 42.1667C33.8049 42.1667 32.9375 41.3459 32.9375 40.3333C32.9375 39.3208 33.8049 38.5 34.875 38.5C35.9451 38.5 36.8125 39.3208 36.8125 40.3333Z" fill="#ABFFFA"/>
<path d="M28.0938 46.2917C28.0938 47.0511 27.4432 47.6667 26.6406 47.6667C25.8381 47.6667 25.1875 47.0511 25.1875 46.2917C25.1875 45.5323 25.8381 44.9167 26.6406 44.9167C27.4432 44.9167 28.0938 45.5323 28.0938 46.2917Z" fill="#ABFFFA"/>
<path d="M62 49.0417C62 49.8011 61.3494 50.4167 60.5469 50.4167C59.7443 50.4167 59.0938 49.8011 59.0938 49.0417C59.0938 48.2823 59.7443 47.6667 60.5469 47.6667C61.3494 47.6667 62 48.2823 62 49.0417Z" fill="#ABFFFA"/>
<path d="M60.0625 33.4583C60.0625 34.2177 59.4119 34.8333 58.6094 34.8333C57.8068 34.8333 57.1562 34.2177 57.1562 33.4583C57.1562 32.699 57.8068 32.0833 58.6094 32.0833C59.4119 32.0833 60.0625 32.699 60.0625 33.4583Z" fill="#ABFFFA"/>
<path d="M47.4688 27.9583C47.4688 28.7177 46.8182 29.3333 46.0156 29.3333C45.2131 29.3333 44.5625 28.7177 44.5625 27.9583C44.5625 27.199 45.2131 26.5833 46.0156 26.5833C46.8182 26.5833 47.4688 27.199 47.4688 27.9583Z" fill="#ABFFFA"/>
<path d="M36.8125 31.625C36.8125 32.3844 36.1619 33 35.3594 33C34.5568 33 33.9062 32.3844 33.9062 31.625C33.9062 30.8656 34.5568 30.25 35.3594 30.25C36.1619 30.25 36.8125 30.8656 36.8125 31.625Z" fill="#ABFFFA"/>
<path d="M59.0938 56.375C59.0938 57.1344 58.4432 57.75 57.6406 57.75C56.8381 57.75 56.1875 57.1344 56.1875 56.375C56.1875 55.6156 56.8381 55 57.6406 55C58.4432 55 59.0938 55.6156 59.0938 56.375Z" fill="#ABFFFA"/>
<path d="M42.625 61.875C42.625 62.6344 41.9744 63.25 41.1719 63.25C40.3693 63.25 39.7188 62.6344 39.7188 61.875C39.7188 61.1156 40.3693 60.5 41.1719 60.5C41.9744 60.5 42.625 61.1156 42.625 61.875Z" fill="#ABFFFA"/>
<path d="M38.75 49.5C38.75 50.5125 37.8826 51.3334 36.8125 51.3334C35.7424 51.3334 34.875 50.5125 34.875 49.5C34.875 48.4875 35.7424 47.6667 36.8125 47.6667C37.8826 47.6667 38.75 48.4875 38.75 49.5Z" fill="#ABFFFA"/>
<path d="M47.4688 43.0833C47.4688 44.6021 46.1676 45.8333 44.5625 45.8333C42.9574 45.8333 41.6562 44.6021 41.6562 43.0833C41.6562 41.5646 42.9574 40.3333 44.5625 40.3333C46.1676 40.3333 47.4688 41.5646 47.4688 43.0833Z" fill="#FCFFFF"/>
<path d="M53.2812 50.875C53.2812 52.1407 52.1969 53.1667 50.8594 53.1667C49.5218 53.1667 48.4375 52.1407 48.4375 50.875C48.4375 49.6094 49.5218 48.5833 50.8594 48.5833C52.1969 48.5833 53.2812 49.6094 53.2812 50.875Z" fill="#FCFFFF"/>
<path d="M44.5625 54.5417C44.5625 55.8073 43.4782 56.8333 42.1406 56.8333C40.8031 56.8333 39.7188 55.8073 39.7188 54.5417C39.7188 53.276 40.8031 52.25 42.1406 52.25C43.4782 52.25 44.5625 53.276 44.5625 54.5417Z" fill="#ABFFFA"/>
<path fill-rule="evenodd" clip-rule="evenodd" d="M34.8631 12.8445C29.7116 12.8445 24.8955 14.2034 20.7934 16.563C13.5142 22.6739 8.68401 31.3388 7.87158 41.0734C8.56729 47.7155 11.939 53.6131 16.9523 57.7872C17.2201 58.3002 17.5025 58.8053 17.7989 59.3019C16.9334 59.6858 16.4921 60.6111 16.7632 61.4805C18.4093 66.7599 21.5827 71.42 25.7998 75.0022C31.7883 78.5898 38.8878 80.6667 46.5 80.6667C54.1125 80.6667 61.2124 78.5895 67.201 75.0016C73.158 69.9415 77.0328 62.7304 77.4605 54.6599C78.7396 51.3342 79.4374 47.7442 79.4374 44C79.4374 41.9604 79.2304 39.9666 78.8351 38.0363C79.7251 37.8723 80.3823 37.1412 80.4007 36.2737C80.4044 36.0995 80.4062 35.9249 80.4062 35.75C80.4062 21.5747 68.2619 10.0833 53.2812 10.0833C48.3672 10.0833 43.7584 11.3198 39.7833 13.4818C38.9129 13.6525 38.0551 13.8556 37.2113 14.0898C36.9528 13.3727 36.2433 12.8655 35.4165 12.8498C35.2325 12.8463 35.048 12.8445 34.8631 12.8445ZM35.3002 14.6814C35.1548 14.679 35.0091 14.6779 34.8631 14.6779C32.8593 14.6779 30.9101 14.8993 29.0414 15.3177C17.9376 17.8038 9.67562 27.2445 9.67562 38.5112C9.67562 44.0475 11.6705 49.1428 15.0173 53.1888C14.0715 50.2841 13.5624 47.1983 13.5624 44C13.5624 33.513 19.0362 24.2358 27.4277 18.5868C28.1749 18.0283 28.9585 17.5113 29.7745 17.0397C31.358 16.1245 33.0638 15.3799 34.8631 14.833C34.8707 14.8307 34.8783 14.8284 34.886 14.8261C35.0236 14.777 35.1617 14.7288 35.3002 14.6814ZM19.3901 29.762C16.9117 33.9783 15.4999 38.8332 15.4999 44C15.4999 48.5292 16.5847 52.8186 18.5219 56.6483C22.9206 60.2002 28.6272 62.3445 34.8631 62.3445C38.438 62.3445 41.8389 61.6398 44.9192 60.3692C46.885 59.5583 48.7202 58.5169 50.3867 57.2812C48.4982 57.9444 46.4962 58.3867 44.4159 58.5749C43.6632 58.643 42.9003 58.6779 42.1287 58.6779C29.0206 58.6779 18.3944 48.6229 18.3944 36.2195C18.3944 33.9749 18.7424 31.8072 19.3901 29.762ZM24.9502 65.0867C23.4307 63.6961 22.0611 62.1597 20.8665 60.5014C24.9528 62.8351 29.7422 64.1779 34.8631 64.1779C41.1679 64.1779 46.9751 62.1402 51.5818 58.7242C52.3333 58.1669 52.5437 57.1746 52.0776 56.3861C51.6114 55.5976 50.6077 55.248 49.7125 55.5624C47.3532 56.391 44.7992 56.8445 42.1287 56.8445C30.0907 56.8445 20.3319 47.6104 20.3319 36.2195C20.3319 29.6737 23.5553 23.838 28.5834 20.059C30.5849 18.7155 32.7621 17.591 35.0761 16.7226C29.5975 21.4188 26.1562 28.2041 26.1562 35.75C26.1562 41.7158 28.3096 47.2108 31.9198 51.5698C32.5087 52.281 33.5574 52.4801 34.3907 52.039C35.224 51.5979 35.5934 50.6481 35.2612 49.8011C34.3855 47.5686 33.9062 45.1519 33.9062 42.625C33.9062 31.2341 43.665 22 55.7031 22C65.1714 22 73.234 27.7139 76.2414 35.6998C77.0604 38.3316 77.4999 41.1172 77.4999 44C77.4999 45.5591 77.3714 47.0898 77.1237 48.583C75.2568 37.3243 66.6223 28.1933 55.2861 25.0286C54.3603 24.7702 53.3747 25.1959 52.9746 26.027C52.5745 26.8582 52.882 27.8412 53.6956 28.3325C60.4403 32.4047 64.9062 39.5428 64.9062 47.6666C64.9062 60.3232 54.0631 70.5833 40.6874 70.5833C34.6808 70.5833 29.1842 68.5149 24.9502 65.0867ZM38.408 72.324C39.1592 72.3853 39.9194 72.4166 40.6874 72.4166C55.1331 72.4166 66.8437 61.3357 66.8437 47.6666C66.8437 41.1566 64.1874 35.2336 59.8445 30.8151C58.333 29.2772 56.6171 27.9216 54.7378 26.787C56.968 27.4096 59.0865 28.2785 61.0582 29.3604C69.7301 34.1189 75.5624 42.9983 75.5624 53.1666C75.5624 53.5431 75.5545 53.9179 75.5386 54.2907C71.1337 65.415 59.7941 73.3333 46.4999 73.3333C43.7004 73.3333 40.9876 72.9822 38.408 72.324ZM78.0881 35.142C78.1633 35.3434 78.2355 35.546 78.3047 35.75C78.3596 35.9115 78.4125 36.0738 78.4636 36.2369C78.467 36.075 78.4687 35.9127 78.4687 35.75C78.4687 33.8539 78.2347 32.0095 77.7925 30.2413C75.1652 19.7344 65.188 11.9167 53.2812 11.9167C50.8729 11.9167 48.5435 12.2365 46.338 12.8337C46.3919 12.8335 46.4459 12.8333 46.4999 12.8333C61.4387 12.8333 74.0547 22.244 78.0881 35.142ZM40.4815 15.2191C42.4284 14.8567 44.4407 14.6667 46.4999 14.6667C55.6475 14.6667 63.8697 18.4158 69.5439 24.3787C65.6478 21.7278 60.8681 20.1667 55.7031 20.1667C42.5949 20.1667 31.9687 30.2216 31.9687 42.625C31.9687 43.3551 32.0055 44.077 32.0775 44.7892C32.2764 46.7577 32.7438 48.652 33.4448 50.439C32.1388 48.8621 31.0382 47.1256 30.1813 45.2655C28.8385 42.3508 28.0937 39.1327 28.0937 35.75C28.0937 27.009 33.0667 19.367 40.4815 15.2191ZM74.572 60.311C71.2478 72.035 59.9392 80.6667 46.5 80.6667C35.7539 80.6667 26.3701 75.1479 21.3412 66.9423C20.1978 65.0766 19.2795 63.072 18.6215 60.9618C19.8207 62.74 21.2533 64.3636 22.8785 65.7938C23.1287 66.014 23.3834 66.2295 23.6425 66.4404C29.5657 71.8436 37.6227 75.1667 46.4999 75.1667C58.3712 75.1667 68.7757 69.224 74.572 60.311Z" fill="#03777E"/>
<path fill-rule="evenodd" clip-rule="evenodd" d="M46.5 80.6667C67.901 80.6667 85.25 64.2504 85.25 44C85.25 23.7496 67.901 7.33334 46.5 7.33334C25.099 7.33334 7.75 23.7496 7.75 44C7.75 64.2504 25.099 80.6667 46.5 80.6667ZM46.5 75.1667C64.6909 75.1667 79.4375 61.2129 79.4375 44C79.4375 26.7871 64.6909 12.8333 46.5 12.8333C28.3091 12.8333 13.5625 26.7871 13.5625 44C13.5625 61.2129 28.3091 75.1667 46.5 75.1667Z" fill="#039AA4"/>
<path fill-rule="evenodd" clip-rule="evenodd" d="M40.6874 72.4166C55.1331 72.4166 66.8436 61.3357 66.8436 47.6666C66.8436 38.8908 62.0166 31.1817 54.7377 26.787C66.7763 30.1478 75.5624 40.6863 75.5624 53.1666C75.5624 68.3544 62.5506 80.6666 46.4999 80.6666C33.3105 80.6666 22.1733 72.353 18.6215 60.9618C23.2659 67.8492 31.4129 72.4166 40.6874 72.4166Z" fill="#00B2BD"/>
<path fill-rule="evenodd" clip-rule="evenodd" d="M35.3777 14.6827C35.2066 14.6795 35.0351 14.6779 34.8632 14.6779C20.9525 14.6779 9.67566 25.3484 9.67566 38.5112C9.67566 51.674 20.9525 62.3445 34.8632 62.3445C40.7195 62.3445 46.1089 60.4533 50.3867 57.2812C47.8149 58.1844 45.0328 58.6779 42.1288 58.6779C29.0206 58.6779 18.3944 48.6229 18.3944 36.2195C18.3944 26.0354 25.5583 17.4345 35.3777 14.6827Z" fill="#1DEDFA"/>
<path fill-rule="evenodd" clip-rule="evenodd" d="M78.4636 36.2369C78.467 36.075 78.4688 35.9127 78.4688 35.75C78.4688 22.5872 67.1919 11.9167 53.2813 11.9167C39.3706 11.9167 28.0938 22.5872 28.0938 35.75C28.0938 41.2914 30.0924 46.3912 33.4448 50.4389C32.4903 48.0054 31.9688 45.3728 31.9688 42.625C31.9688 30.2216 42.595 20.1667 55.7031 20.1667C66.4659 20.1667 75.5555 26.9454 78.4636 36.2369Z" fill="#0CC6D1"/>
<path fill-rule="evenodd" clip-rule="evenodd" d="M46.5 10.0833C26.704 10.0833 10.6562 25.2683 10.6562 44C10.6562 62.7317 26.704 77.9167 46.5 77.9167C66.296 77.9167 82.3438 62.7317 82.3438 44C82.3438 25.2683 66.296 10.0833 46.5 10.0833ZM8.71875 44C8.71875 24.2558 25.634 8.25 46.5 8.25C67.366 8.25 84.2812 24.2558 84.2812 44C84.2812 63.7442 67.366 79.75 46.5 79.75C25.634 79.75 8.71875 63.7442 8.71875 44Z" fill="#0EE3F0"/>
<path fill-rule="evenodd" clip-rule="evenodd" d="M46.5 10.0833C26.704 10.0833 10.6562 25.2683 10.6562 44C10.6562 44.5063 10.2225 44.9167 9.6875 44.9167C9.15247 44.9167 8.71875 44.5063 8.71875 44C8.71875 24.2558 25.634 8.25 46.5 8.25C47.035 8.25 47.4688 8.66041 47.4688 9.16667C47.4688 9.67293 47.035 10.0833 46.5 10.0833Z" fill="#D0FCFF"/>
<path fill-rule="evenodd" clip-rule="evenodd" d="M50.3512 16.2981C50.469 16.7919 50.1415 17.2826 49.6196 17.3942C35.237 20.4672 31.9545 32.2934 31.4815 38.112C31.4405 38.6167 30.9748 38.9945 30.4413 38.9556C29.9079 38.9168 29.5087 38.4761 29.5497 37.9714C30.0455 31.8732 33.5442 18.9494 49.1929 15.6058C49.7147 15.4943 50.2333 15.8043 50.3512 16.2981Z" fill="#1CE0EC"/>
<path fill-rule="evenodd" clip-rule="evenodd" d="M14.4863 39.4177C15.0207 39.3941 15.4741 39.785 15.499 40.2908C15.8021 46.4584 21.4664 56.9166 36.4777 59.136C37.0063 59.2142 37.3679 59.683 37.2853 60.1832C37.2027 60.6834 36.7072 61.0255 36.1786 60.9474C20.1899 58.5834 13.9062 47.3472 13.5636 40.3759C13.5387 39.8702 13.9518 39.4412 14.4863 39.4177Z" fill="#9DF9FF"/>
<path fill-rule="evenodd" clip-rule="evenodd" d="M65.2204 34.1576C65.6148 33.8155 66.2276 33.8407 66.5891 34.2139C69.4635 37.1811 71.318 42.4648 71.5656 48.0868C71.8142 53.7344 70.4524 59.9194 66.65 64.7167C66.329 65.1217 65.7218 65.2038 65.2937 64.9C64.8657 64.5962 64.779 64.0217 65.1 63.6167C68.5632 59.2473 69.8654 53.5156 69.6297 48.1632C69.3929 42.7852 67.6146 37.9856 65.1609 35.4527C64.7993 35.0796 64.826 34.4997 65.2204 34.1576Z" fill="#16D0DC"/>
</svg>
