<svg width="104" height="96" viewBox="0 0 104 96" fill="none" xmlns="http://www.w3.org/2000/svg">
<path d="M23.8333 26L23.8333 70L43.3333 88L60.6666 88L80.1666 70L80.1666 26L60.6666 8L43.3333 8L23.8333 26Z" fill="#65C1E9"/>
<path fill-rule="evenodd" clip-rule="evenodd" d="M22.3012 24.5858C21.8949 24.9609 21.6666 25.4696 21.6666 26L21.6666 70C21.6666 70.5304 21.8949 71.0391 22.3012 71.4142L41.8012 89.4142C42.2076 89.7893 42.7587 90 43.3333 90L60.6666 90C61.2413 90 61.7924 89.7893 62.1987 89.4142L81.6987 71.4142C82.105 71.0391 82.3333 70.5304 82.3333 70L82.3333 26C82.3333 25.4696 82.105 24.9609 81.6987 24.5858L62.1987 6.58579C61.7924 6.21072 61.2413 6 60.6666 6L43.3333 6C42.7587 6 42.2076 6.21072 41.8012 6.58579L22.3012 24.5858ZM43.3333 8L23.8333 26L23.8333 70L43.3333 88L60.6666 88L80.1666 70L80.1666 26L60.6666 8L43.3333 8Z" fill="#052360"/>
<path d="M23.8333 70L23.8333 26L40.0833 31L40.0833 65L23.8333 70Z" fill="#54B5EC"/>
<path d="M43.3333 8L23.8333 26L40.0833 31L52 18L60.6666 8L43.3333 8Z" fill="#C1E9FF"/>
<path d="M63.9166 65L52 78L43.3333 88L60.6666 88L80.1666 70L80.1667 26L60.6666 8L52 18L63.9166 31L63.9166 65Z" fill="#2D88F3"/>
<path d="M80.1666 26L80.1666 70L63.9166 65L63.9166 31L80.1666 26Z" fill="#4E5CDE"/>
<path d="M78 36C78 37.1045 77.0299 38 75.8333 38C74.6367 38 73.6666 37.1045 73.6666 36C73.6666 34.8954 74.6367 34 75.8333 34C77.0299 34 78 34.8954 78 36Z" fill="#6473FC"/>
<path d="M74.7499 44.5C74.7499 45.3284 74.0224 46 73.1249 46C72.2275 46 71.4999 45.3284 71.4999 44.5C71.4999 43.6715 72.2275 43 73.1249 43C74.0224 43 74.7499 43.6715 74.7499 44.5Z" fill="#6473FC"/>
<path d="M78 42C78 42.5523 77.515 43 76.9166 43C76.3183 43 75.8333 42.5523 75.8333 42C75.8333 41.4477 76.3183 41 76.9166 41C77.515 41 78 41.4477 78 42Z" fill="#6473FC"/>
<path d="M72.5833 39C72.5833 39.5523 72.0983 40 71.5 40C70.9017 40 70.4166 39.5523 70.4166 39C70.4166 38.4477 70.9017 38 71.5 38C72.0983 38 72.5833 38.4477 72.5833 39Z" fill="#6473FC"/>
<path d="M78 30C78 30.5523 77.515 31 76.9166 31C76.3183 31 75.8333 30.5523 75.8333 30C75.8333 29.4477 76.3183 29 76.9166 29C77.515 29 78 29.4477 78 30Z" fill="#6473FC"/>
<path d="M78 54C78 54.5523 77.515 55 76.9166 55C76.3183 55 75.8333 54.5523 75.8333 54C75.8333 53.4477 76.3183 53 76.9166 53C77.515 53 78 53.4477 78 54Z" fill="#6473FC"/>
<path d="M78 49C78 49.5523 77.515 50 76.9166 50C76.3183 50 75.8333 49.5523 75.8333 49C75.8333 48.4477 76.3183 48 76.9166 48C77.515 48 78 48.4477 78 49Z" fill="#6473FC"/>
<path d="M40.0833 30.9999L40.0833 64.9999L52 77.9999L63.9167 65.0468L63.9166 30.9999L52 17.9999L40.0833 30.9999Z" fill="#38ACFF"/>
<path d="M40.0833 65L40.0833 31L52 18L63.9166 31L40.0833 65Z" fill="#83CBFF"/>
<path fill-rule="evenodd" clip-rule="evenodd" d="M52.686 20.226C53.149 20.5757 53.2173 21.2058 52.8384 21.6332L43.3333 32.3569V53C43.3333 53.5523 42.8483 54 42.25 54C41.6517 54 41.1666 53.5523 41.1666 53V32C41.1666 31.7691 41.2531 31.5454 41.4115 31.3667L51.1615 20.3667C51.5404 19.9393 52.2229 19.8763 52.686 20.226Z" fill="#C2E6FF"/>
<path fill-rule="evenodd" clip-rule="evenodd" d="M26 28C26.5983 28 27.0833 28.4477 27.0833 29V67C27.0833 67.5523 26.5983 68 26 68C25.4017 68 24.9166 67.5523 24.9166 67V29C24.9166 28.4477 25.4017 28 26 28Z" fill="#74CCFE"/>
<path fill-rule="evenodd" clip-rule="evenodd" d="M45.1827 9.29289C45.6057 9.68342 45.6057 10.3166 45.1827 10.7071L28.9327 25.7071C28.5096 26.0976 27.8237 26.0976 27.4006 25.7071C26.9775 25.3166 26.9775 24.6834 27.4006 24.2929L43.6506 9.29289C44.0737 8.90237 44.7596 8.90237 45.1827 9.29289Z" fill="#E2FBFF"/>
<path d="M73.6666 72.5C73.6666 73.3284 72.9391 74 72.0416 74C71.1442 74 70.4166 73.3284 70.4166 72.5C70.4166 71.6715 71.1442 71 72.0416 71C72.9391 71 73.6666 71.6715 73.6666 72.5Z" fill="#1B73DA"/>
<path d="M62.8333 82.5C62.8333 83.3284 62.1058 84 61.2083 84C60.3109 84 59.5833 83.3284 59.5833 82.5C59.5833 81.6715 60.3109 81 61.2083 81C62.1058 81 62.8333 81.6715 62.8333 82.5Z" fill="#1B73DA"/>
<path d="M67.1666 78.5C67.1666 79.3284 66.4391 80 65.5416 80C64.6442 80 63.9166 79.3284 63.9166 78.5C63.9166 77.6715 64.6442 77 65.5416 77C66.4391 77 67.1666 77.6715 67.1666 78.5Z" fill="#1B73DA"/>
<path d="M61.75 76C61.75 76.5523 61.265 77 60.6666 77C60.0683 77 59.5833 76.5523 59.5833 76C59.5833 75.4477 60.0683 75 60.6666 75C61.265 75 61.75 75.4477 61.75 76Z" fill="#1B73DA"/>
<path d="M69.3333 76C69.3333 76.5523 68.8483 77 68.25 77C67.6517 77 67.1666 76.5523 67.1666 76C67.1666 75.4477 67.6517 75 68.25 75C68.8483 75 69.3333 75.4477 69.3333 76Z" fill="#1B73DA"/>
<path d="M67.1666 72C67.1666 73.1045 66.1966 74 65 74C63.8034 74 62.8333 73.1045 62.8333 72C62.8333 70.8954 63.8034 70 65 70C66.1966 70 67.1666 70.8954 67.1666 72Z" fill="#1B73DA"/>
</svg>
