<svg width="75" height="72" viewBox="0 0 75 72" fill="none" xmlns="http://www.w3.org/2000/svg">
<path d="M50.097 32.2187L68.482 12.6667C70.1486 10.8943 69.2682 8.13553 66.9275 7.79608L26.1834 1.88714C24.9087 1.70228 23.6063 2.34241 22.9471 3.47769L6.56296 31.695C5.51302 33.5032 6.52796 35.6802 8.55818 35.9747L23.587 38.1542C24.2251 38.2468 24.5721 38.9033 24.2962 39.4962L14.8948 59.702C13.7074 62.2539 16.3116 64.6901 18.8753 63.4258L63.8588 41.2422C66.549 39.9155 66.1289 36.0921 63.247 35.6741L50.6151 33.8422C49.8349 33.729 49.5414 32.8095 50.097 32.2187Z" fill="#FFB547" stroke="#604104" stroke-width="2" stroke-linecap="round" stroke-linejoin="round"/>
<path d="M23.8983 3.78907C24.2862 3.12092 25.1631 2.74779 26.0449 2.87566L42.3742 5.24382L29.6694 27.5974L11.681 24.83L23.8983 3.78907Z" fill="#FFC369"/>
<path d="M17.1127 60.6112L27.234 39.8611" stroke="#FFE7A9" stroke-width="2" stroke-linecap="round" stroke-linejoin="round"/>
<path d="M64.5418 39.8257L18.4896 62.5363L55.1116 37.0688L54.0994 35.3852L63.8637 36.7719C65.6904 37.0368 66.1351 39.0399 64.5418 39.8257Z" fill="#C87719"/>
<path d="M68.2755 11.4697L48.8527 32.1253C47.93 33.1066 48.5946 34.5467 50.0673 34.7711L40.103 33.2894L59.0963 7.66876L67.043 8.82123C68.5282 9.03663 69.202 10.4844 68.2755 11.4697Z" fill="#C87719"/>
<path d="M18.9345 63.4333C18.9806 63.4106 19.0249 63.3843 19.0669 63.3548L53.0882 39.4622C55.3036 37.9064 54.4877 34.4437 51.8108 34.0406L41.9012 32.5484L57.9095 10.9543C59.2613 9.13076 58.1766 6.52456 55.9301 6.19877L26.1922 1.88602C24.9855 1.71102 23.6677 2.20119 23.0373 3.28694L6.29361 32.1235C5.80866 32.9586 5.87762 33.8945 6.33206 34.6271C6.77634 35.3433 7.55793 35.8314 8.4718 35.9639L23.7574 38.1807C24.1286 38.2346 24.3618 38.4118 24.4705 38.5708C24.5703 38.7171 24.5802 38.8556 24.515 38.9957L14.6972 60.0964C14.101 61.3777 14.712 62.5734 15.6074 63.199C16.4895 63.8153 17.7699 64.0076 18.9345 63.4333Z" stroke="#604104" stroke-width="2" stroke-linecap="round" stroke-linejoin="round"/>
<path d="M40.1029 33.2896L57.102 10.3589C58.0033 9.14323 57.2801 7.40577 55.7824 7.18857L52.5984 6.72681L36.6041 32.4615L40.1029 33.2896Z" fill="#E78F28"/>
<path d="M25.1107 5.13968L9.11646 32.4615" stroke="#FFE7A9" stroke-width="2" stroke-linecap="round" stroke-linejoin="round"/>
<path d="M9.11646 32.4615L13.6148 24.7772" stroke="#FFF5DB" stroke-width="2" stroke-linecap="round" stroke-linejoin="round"/>
<ellipse cx="0.729565" cy="0.765372" rx="0.729565" ry="0.765372" transform="matrix(0.93679 0.349893 -0.478199 0.878251 55.5303 20.0336)" fill="#AD6209"/>
<ellipse cx="0.729565" cy="0.765372" rx="0.729565" ry="0.765372" transform="matrix(0.93679 0.349893 -0.478199 0.878251 52.7329 24.3762)" fill="#AD6209"/>
<ellipse cx="0.995584" cy="1.04445" rx="0.995584" ry="1.04445" transform="matrix(0.93679 0.349893 -0.478199 0.878251 52.9366 21.383)" fill="#AD6209"/>
<ellipse cx="0.729565" cy="0.765372" rx="0.729565" ry="0.765372" transform="matrix(0.93679 0.349893 -0.478199 0.878251 59.3115 16.7477)" fill="#AD6209"/>
<ellipse cx="0.522059" cy="0.547682" rx="0.522059" ry="0.547682" transform="matrix(0.93679 0.349893 -0.478199 0.878251 57.0061 17.6407)" fill="#AD6209"/>
<ellipse cx="0.522059" cy="0.547682" rx="0.522059" ry="0.547682" transform="matrix(0.93679 0.349893 -0.478199 0.878251 57.9841 19.6338)" fill="#AD6209"/>
<ellipse cx="0.522059" cy="0.547682" rx="0.522059" ry="0.547682" transform="matrix(0.93679 0.349893 -0.478199 0.878251 54.9277 23.049)" fill="#AD6209"/>
<ellipse cx="0.522059" cy="0.547682" rx="0.522059" ry="0.547682" transform="matrix(0.93679 0.349893 -0.478199 0.878251 50.116 25.8655)" fill="#AD6209"/>
<ellipse cx="0.522059" cy="0.547682" rx="0.522059" ry="0.547682" transform="matrix(0.93679 0.349893 -0.478199 0.878251 54.9277 18.0058)" fill="#AD6209"/>
<ellipse cx="0.522059" cy="0.547682" rx="0.522059" ry="0.547682" transform="matrix(0.93679 0.349893 -0.478199 0.878251 57.9841 13.8661)" fill="#AD6209"/>
<ellipse cx="0.522059" cy="0.547682" rx="0.522059" ry="0.547682" transform="matrix(0.93679 0.349893 -0.478199 0.878251 61.8585 14.3836)" fill="#AD6209"/>
<path d="M32.229 51.0124L51.4096 36.8858" stroke="#F0A637" stroke-width="2" stroke-linecap="round" stroke-linejoin="round"/>
<path d="M35.9812 30.0812L49.6013 7.6752" stroke="#F0A637" stroke-width="2" stroke-linecap="round" stroke-linejoin="round"/>
<ellipse cx="0.864932" cy="0.841212" rx="0.864932" ry="0.841212" transform="matrix(0.974912 0.22259 -0.315808 0.948823 43.3279 35.8949)" fill="#FFC670"/>
<ellipse cx="0.588269" cy="0.572137" rx="0.588269" ry="0.572137" transform="matrix(0.974912 0.22259 -0.315808 0.948823 40.6819 39.3809)" fill="#FFC670"/>
<ellipse cx="0.588269" cy="0.572137" rx="0.588269" ry="0.572137" transform="matrix(0.974912 0.22259 -0.315808 0.948823 36.7173 40.9211)" fill="#FFC670"/>
<ellipse cx="0.588269" cy="0.572137" rx="0.588269" ry="0.572137" transform="matrix(0.974912 0.22259 -0.315808 0.948823 40.6819 36.2381)" fill="#FFC670"/>
<ellipse cx="0.588269" cy="0.572137" rx="0.588269" ry="0.572137" transform="matrix(0.974912 0.22259 -0.315808 0.948823 47.3071 35.6329)" fill="#FFC670"/>
<ellipse cx="0.412043" cy="0.400743" rx="0.412043" ry="0.400743" transform="matrix(0.974912 0.22259 -0.315808 0.948823 44.7368 38.1288)" fill="#FFC670"/>
<ellipse cx="0.412043" cy="0.400743" rx="0.412043" ry="0.400743" transform="matrix(0.974912 0.22259 -0.315808 0.948823 38.8335 42.2686)" fill="#FFC670"/>
<ellipse cx="0.412043" cy="0.400743" rx="0.412043" ry="0.400743" transform="matrix(0.974912 0.22259 -0.315808 0.948823 39.7708 34.5903)" fill="#FFC670"/>
<ellipse cx="0.412043" cy="0.400743" rx="0.412043" ry="0.400743" transform="matrix(0.974912 0.22259 -0.315808 0.948823 45.5402 35.1612)" fill="#FFC670"/>
<ellipse cx="0.412043" cy="0.400743" rx="0.412043" ry="0.400743" transform="matrix(0.974912 0.22259 -0.315808 0.948823 43.0455 38.7846)" fill="#FFC670"/>
<ellipse cx="0.412043" cy="0.400743" rx="0.412043" ry="0.400743" transform="matrix(0.974912 0.22259 -0.315808 0.948823 38.8335 36.9803)" fill="#FFC670"/>
<ellipse cx="0.412043" cy="0.400743" rx="0.412043" ry="0.400743" transform="matrix(0.974912 0.22259 -0.315808 0.948823 39.5146 38.3124)" fill="#FFC670"/>
<ellipse cx="0.412043" cy="0.400743" rx="0.412043" ry="0.400743" transform="matrix(0.974912 0.22259 -0.315808 0.948823 35.4336 44.4184)" fill="#FFC670"/>
</svg>
