<svg version="1.2" xmlns="http://www.w3.org/2000/svg" viewBox="0 0 510 132" width="510" height="132"><defs><clipPath clipPathUnits="userSpaceOnUse" id="cp1"><path d="m28.78 51.94c-4.21-10.51 3.53-21.94 14.85-21.94h62.37c8.84 0 16 7.16 16 16v70c0 8.84-7.16 16-16 16h-62.37c-11.32 0-19.06-11.43-14.85-21.94l9.24-23.12c1.53-3.81 1.53-8.07 0-11.88z"/></clipPath><clipPath clipPathUnits="userSpaceOnUse" id="cp2"><path d="m481.22 51.94c4.21-10.51-3.53-21.94-14.85-21.94h-62.37c-8.84 0-16 7.16-16 16v70c0 8.84 7.16 16 16 16h62.37c11.32 0 19.06-11.43 14.85-21.94l-9.24-23.12c-1.53-3.81-1.53-8.07 0-11.88z"/></clipPath></defs><style>.a{fill:#f8e9e9}.b{opacity:.4}</style><path class="a" d="m28.8 51.9c-4.2-10.5 3.5-21.9 14.8-21.9h62.4c8.8 0 16 7.2 16 16v70c0 8.8-7.2 16-16 16h-62.4c-11.3 0-19-11.4-14.8-21.9l11.6-29.1z"/><g clip-path="url(#cp1)"><path class="b" d="m122 88h-40l20 22 20 22z"/></g><path class="a" d="m481.2 51.9c4.2-10.5-3.5-21.9-14.8-21.9h-62.4c-8.8 0-16 7.2-16 16v70c0 8.8 7.2 16 16 16h62.4c11.3 0 19-11.4 14.8-21.9l-11.6-29.1z"/><g clip-path="url(#cp2)"><path class="b" d="m388 88h40l-20 22-20 22z"/></g><path fill-rule="evenodd" class="a" d="m85.5 0h339c8.8 0 16 7.2 16 16v70c0 8.8-7.2 16-16 16h-339c-8.8 0-16-7.2-16-16v-70c0-8.8 7.2-16 16-16z"/></svg>