<?xml version="1.0" encoding="UTF-8" standalone="no" ?>
<!DOCTYPE svg PUBLIC "-//W3C//DTD SVG 1.1//EN" "http://www.w3.org/Graphics/SVG/1.1/DTD/svg11.dtd">
<svg xmlns="http://www.w3.org/2000/svg" xmlns:xlink="http://www.w3.org/1999/xlink" version="1.1" width="500" height="200" viewBox="0 0 500 200" xml:space="preserve">
<desc>Created with Fabric.js 5.2.4</desc>
<defs>
</defs>
<g transform="matrix(Infinity NaN NaN Infinity 0 0)" id="deaee4e2-2232-421a-a36c-8863359ac02f"  >
</g>
<g transform="matrix(1 0 0 1 250 100)" id="96ae4f9d-0d11-4d85-b90f-0741d88c4860"  >
<rect style="stroke: none; stroke-width: 1; stroke-dasharray: none; stroke-linecap: butt; stroke-dashoffset: 0; stroke-linejoin: miter; stroke-miterlimit: 4; fill: rgb(255,255,255); fill-rule: nonzero; opacity: 1; visibility: hidden;" vector-effect="non-scaling-stroke"  x="-250" y="-100" rx="0" ry="0" width="500" height="200" />
</g>
<g transform="matrix(0.45 0 0 0.42 250 94)"  >
<g style="" vector-effect="non-scaling-stroke"   >
		<g transform="matrix(1 0 0 1 0 0)"  >
<rect style="stroke: none; stroke-width: 1; stroke-dasharray: none; stroke-linecap: butt; stroke-dashoffset: 0; stroke-linejoin: miter; stroke-miterlimit: 4; fill: rgb(255,255,255); fill-rule: nonzero; opacity: 1; visibility: hidden;" vector-effect="non-scaling-stroke"  x="-540" y="-540" rx="0" ry="0" width="1080" height="1080" />
</g>
		<g transform="matrix(1.78 0 0 1.78 0 32.34)"  >
<path style="stroke: rgb(0,0,0); stroke-width: 4; stroke-dasharray: none; stroke-linecap: butt; stroke-dashoffset: 0; stroke-linejoin: miter; stroke-miterlimit: 4; fill: rgb(45,49,52); fill-rule: nonzero; opacity: 1;" vector-effect="non-scaling-stroke"  transform=" translate(-303.5, -113.5)" d="M 605 113.5 C 605 128.392 596.937 142.819 581.825 156.181 C 566.715 169.54 544.737 181.663 517.406 191.883 C 462.76 212.319 387.133 225 303.5 225 C 219.867 225 144.24 212.319 89.5936 191.883 C 62.2632 181.663 40.2849 169.54 25.1753 156.181 C 10.0631 142.819 2 128.392 2 113.5 C 2 98.6085 10.0631 84.1807 25.1753 70.819 C 40.2849 57.4596 62.2632 45.3375 89.5936 35.1167 C 144.24 14.6807 219.867 2 303.5 2 C 387.133 2 462.76 14.6807 517.406 35.1167 C 544.737 45.3375 566.715 57.4596 581.825 70.819 C 596.937 84.1807 605 98.6085 605 113.5 Z" stroke-linecap="round" />
</g>
		<g transform="matrix(1.78 0 0 1.78 0 0)"  >
<path style="stroke: rgb(0,0,0); stroke-width: 4; stroke-dasharray: none; stroke-linecap: butt; stroke-dashoffset: 0; stroke-linejoin: miter; stroke-miterlimit: 4; fill: rgb(255,240,216); fill-rule: nonzero; opacity: 1;" vector-effect="non-scaling-stroke"  transform=" translate(-303.5, -113.5)" d="M 605 113.5 C 605 128.392 596.937 142.819 581.825 156.181 C 566.715 169.54 544.737 181.663 517.406 191.883 C 462.76 212.319 387.133 225 303.5 225 C 219.867 225 144.24 212.319 89.5936 191.883 C 62.2632 181.663 40.2849 169.54 25.1753 156.181 C 10.0631 142.819 2 128.392 2 113.5 C 2 98.6085 10.0631 84.1807 25.1753 70.819 C 40.2849 57.4596 62.2632 45.3375 89.5936 35.1167 C 144.24 14.6807 219.867 2 303.5 2 C 387.133 2 462.76 14.6807 517.406 35.1167 C 544.737 45.3375 566.715 57.4596 581.825 70.819 C 596.937 84.1807 605 98.6085 605 113.5 Z" stroke-linecap="round" />
</g>
</g>
</g>
</svg>