<svg width="48" height="48" viewBox="0 0 48 48" fill="none" xmlns="http://www.w3.org/2000/svg">
<path fill-rule="evenodd" clip-rule="evenodd" d="M24 0C10.7452 0 0 10.7452 0 24C0 37.2548 10.7452 48 24 48C37.2548 48 48 37.2548 48 24C48 10.7452 37.2548 0 24 0ZM14.9051 10.4H33.8949C35.4962 10.4 36.8 11.688 36.8 13.284V38.4L33.7531 35.74L32.0384 34.172L30.2245 32.506L30.9755 35.096H14.9051C13.3038 35.096 12 33.808 12 32.212V13.284C12 11.688 13.3038 10.4 14.9051 10.4Z" fill="black"/>
<path fill-rule="evenodd" clip-rule="evenodd" d="M28.4248 28.684C28.4248 28.684 27.9146 28.082 27.4894 27.55C29.3459 27.032 30.0545 25.884 30.0545 25.884C29.4734 26.262 28.9208 26.528 28.4248 26.71C27.7162 27.004 27.036 27.2 26.3699 27.312C25.0094 27.564 23.7624 27.494 22.6995 27.298C21.8917 27.144 21.1973 26.92 20.6163 26.696C20.2904 26.57 19.9361 26.416 19.5818 26.22C19.5605 26.206 19.5393 26.1955 19.518 26.185C19.4968 26.1745 19.4755 26.164 19.4542 26.15C19.4259 26.136 19.4117 26.122 19.3976 26.108C19.1425 25.968 19.0008 25.87 19.0008 25.87C19.0008 25.87 19.681 26.99 21.4808 27.522C21.0556 28.054 20.5313 28.684 20.5313 28.684C17.3994 28.586 16.209 26.556 16.209 26.556C16.209 22.048 18.2497 18.394 18.2497 18.394C20.2904 16.882 22.2318 16.924 22.2318 16.924L22.3736 17.092C19.8227 17.82 18.6465 18.926 18.6465 18.926C18.6465 18.926 18.9582 18.758 19.4826 18.52C20.9989 17.862 22.2035 17.68 22.6995 17.638L22.7313 17.6327C22.8028 17.6207 22.8662 17.61 22.9404 17.61C23.8049 17.498 24.7827 17.47 25.803 17.582C27.1493 17.736 28.5948 18.128 30.0686 18.926C30.0686 18.926 28.9491 17.876 26.54 17.148L26.7384 16.924C26.7384 16.924 28.6798 16.882 30.7205 18.394C30.7205 18.394 32.7612 22.048 32.7612 26.556C32.7612 26.556 31.5566 28.586 28.4248 28.684ZM22.2342 22.4C21.4328 22.4 20.8001 23.1207 20.8001 24C20.8001 24.8793 21.4468 25.6 22.2342 25.6C23.0356 25.6 23.6683 24.8793 23.6683 24C23.6823 23.1207 23.0356 22.4 22.2342 22.4ZM25.9319 24C25.9319 23.1207 26.5646 22.4 27.366 22.4C28.1674 22.4 28.8001 23.1207 28.8001 24C28.8001 24.8793 28.1674 25.6 27.366 25.6C26.5786 25.6 25.9319 24.8793 25.9319 24Z" fill="black"/>
</svg>
